<svg width="14" height="15" viewBox="0 0 14 15" fill="none" xmlns="http://www.w3.org/2000/svg">
<path fill-rule="evenodd" clip-rule="evenodd" d="M13.8136 0.686404C13.9865 0.859264 14.045 1.11587 13.9643 1.3466L9.50972 14.0739C9.42352 14.3201 9.19573 14.4888 8.93502 14.4995C8.67432 14.5101 8.43353 14.3605 8.32757 14.1221L5.88152 8.61848L0.377915 6.17243C0.139482 6.06646 -0.0101039 5.82568 0.00053218 5.56498C0.0111682 5.30427 0.179871 5.07648 0.426143 4.99028L13.1534 0.535744C13.3841 0.454986 13.6407 0.513544 13.8136 0.686404ZM7.12265 8.2773L8.8387 12.1384L11.8418 3.55818L7.12265 8.2773ZM10.9418 2.65822L2.36159 5.6613L6.2227 7.37735L10.9418 2.65822Z" fill="#384860"/>
</svg>
