<svg width="160" height="31" viewBox="0 0 160 31" fill="none" xmlns="http://www.w3.org/2000/svg">
<g clip-path="url(#clip0_40_112)">
<path d="M37.0757 19.9337C38.1753 19.9933 39.2238 19.7448 40.2587 19.4094C40.6213 19.292 40.9855 19.1814 41.3515 19.0775C41.6527 18.9924 41.9319 19.0418 42.0834 19.3396C42.2281 19.6239 42.0374 19.8248 41.8298 19.9831C41.5779 20.1754 41.3344 20.3984 41.0485 20.5192C37.5285 22.0001 33.9013 22.7984 30.0851 21.9592C28.434 21.5967 26.9923 20.7609 25.9404 19.4111C23.9353 16.8426 24.6961 13.4111 27.6238 11.6801C29.7634 10.4154 32.1055 9.75497 34.5549 9.43837C35.5744 9.30731 35.5813 9.31582 34.9957 8.51412C34.3217 7.59156 33.6561 6.66901 33.2562 5.58305C32.7949 4.33199 32.9498 3.20007 33.9421 2.27412C35.4587 0.863053 37.2664 0.0579471 39.3515 7.47289e-05C41.183 -0.0509891 42.6383 1.71412 42.2979 3.50816C42.1787 4.13454 41.7361 4.11922 41.2766 3.90646C40.2979 3.45199 39.3344 2.96348 38.354 2.51412C38.0255 2.36433 37.6613 2.10561 37.3123 2.48859C37.0076 2.8239 37.1251 3.20178 37.251 3.56263C37.6 4.55667 38.1464 5.44518 38.7591 6.29795C39.4621 7.27497 40.1889 8.24008 40.8442 9.24773C41.4076 10.1158 41.2408 10.8154 40.303 11.1609C39.04 11.6256 37.76 12.075 36.3387 11.6545C34.543 11.1235 32.7387 11.2188 31.0366 12.0426C28.6876 13.1779 28.3353 15.7482 30.3132 17.4656C31.9932 18.926 34.0187 19.6375 36.2161 19.886C36.5004 19.9184 36.7881 19.9167 37.074 19.932L37.0757 19.9337Z" fill="#192965" fill-opacity="0.9"/>
<path d="M44.628 20.4289C45.5148 19.0877 46.5617 17.9625 47.6017 16.7506C45.2187 17.4434 42.8902 18.3234 40.3982 18.3472C40.3829 18.2706 40.3659 18.194 40.3506 18.1191C40.9821 17.9932 41.617 17.8859 42.2434 17.7362C45.7004 16.9123 48.6195 15.1166 51.2527 12.7966C51.7974 12.3166 51.748 12.0238 51.251 11.52C49.9557 10.2077 48.4459 9.09276 46.7795 8.28425C45.2595 7.54722 43.9642 6.55488 43.3736 4.88169C43.268 4.58382 43.0893 4.22467 43.3617 3.99488C43.6119 3.78382 43.8842 4.09191 44.1344 4.20254C46.3302 5.18637 48.6638 5.66297 51.0246 5.99488C52.5787 6.21276 53.5557 6.99403 54.068 8.47318C54.5123 9.75999 54.7795 9.85361 56.0119 9.26467C57.0587 8.76425 57.9148 9.18808 58.817 9.75659C58.4051 10.223 57.8723 10.6213 57.5557 11.2034C57.2544 11.7566 57.4144 12.0834 58.0238 12.0936C59.0229 12.1106 60.0153 12.063 60.6689 13.0332C61.2119 13.84 61.4502 14.7353 61.6204 15.6851C61.9982 17.8094 63.2578 19.4979 64.5021 21.1864C64.6723 21.4179 65.1012 21.5932 64.868 21.9574C64.6451 22.3081 64.2876 22.0664 63.9948 21.9949C61.3582 21.3447 59.6697 19.5404 58.4153 17.2936C57.9846 16.5208 57.4008 16.1753 56.6468 15.7702C53.2408 13.9438 50.6536 15.5438 48.148 17.5915C47.2408 18.3336 46.417 19.1779 45.5472 19.9642C45.3225 20.1668 45.1591 20.4885 44.628 20.4255V20.4289Z" fill="url(#paint0_linear_40_112)"/>
<path d="M127.636 18.097C126.437 19.4843 125.163 20.4408 123.668 21.1013C122.669 21.5438 121.632 21.7889 120.541 21.8672C119.74 21.9251 119.292 21.5813 119.038 20.8562C118.565 19.503 118.929 18.3013 119.678 17.1711C121.031 15.1268 122.907 13.6102 124.856 12.177C126.034 11.3106 127.289 10.5668 128.718 10.1634C129.93 9.82127 131.11 9.90468 132.249 10.4408C132.924 10.7591 133.234 11.2306 133.086 12.0391C132.851 13.3225 132.4 14.5362 132.034 15.777C131.481 17.6477 130.694 19.4911 131.396 21.503C131.498 21.7957 131.358 22.0817 131.144 22.2791C130.39 22.9668 129.503 22.4987 128.683 22.4885C128.121 22.4817 127.971 21.954 127.852 21.4706C127.598 20.4408 127.68 19.394 127.639 18.0953L127.636 18.097ZM123.246 18.8136C123.154 19.3055 123.421 19.4843 123.893 19.2953C124.298 19.1319 124.701 18.914 125.037 18.6366C126.851 17.1336 128.422 15.4025 129.712 13.4349C130.007 12.9855 130.551 12.3404 130.131 11.9336C129.661 11.4791 129.003 12.0119 128.534 12.3489C126.611 13.7345 125.049 15.4672 123.762 17.4451C123.505 17.8383 123.295 18.2723 123.246 18.8153V18.8136Z" fill="#192965" fill-opacity="0.9"/>
<path d="M88.3404 19.3975C88.5021 16.9498 89.4247 14.7966 90.3217 12.6349C91.3004 10.2758 92.4817 7.97958 92.6741 5.36852C92.7013 4.98895 92.9787 4.82214 93.263 4.68767C94.2077 4.24001 95.1523 3.79065 96.1192 3.39575C96.4749 3.24937 96.897 2.96341 97.2817 3.30895C97.6834 3.66809 97.4979 4.12256 97.377 4.54809C96.88 6.28767 96.0187 7.87916 95.3089 9.53192C94.4136 11.6187 93.3021 13.617 92.6774 15.8179C92.5821 16.1515 92.4494 16.4817 92.4034 16.8221C92.3268 17.3685 92.0919 17.983 92.6792 18.3949C93.3038 18.8323 93.9013 18.5515 94.4511 18.2026C95.04 17.8298 95.6 17.4128 96.1804 17.0247C96.4017 16.8783 96.6128 16.5855 96.9226 16.8732C97.1898 17.1217 97.1915 17.4553 97.0809 17.7549C96.9038 18.2349 96.5753 18.6264 96.2026 18.9787C95.154 19.966 93.8979 20.6451 92.6792 21.3872C91.2323 22.2672 90.1719 21.4877 89.0519 20.7217C88.5311 20.366 88.177 19.9949 88.3438 19.3975H88.3404Z" fill="#192965" fill-opacity="0.9"/>
<path d="M101.792 19.0196C102.815 20.0136 103.814 20.4834 105.091 20.114C105.457 20.0085 105.82 19.8893 106.186 19.7821C106.56 19.6715 106.974 19.5506 107.188 20.0017C107.389 20.4255 107.117 20.7591 106.776 20.9532C105.254 21.8247 103.649 22.3779 101.867 21.9251C100.853 21.6681 99.8655 21.2987 98.8493 21.0536C97.8604 20.817 97.4281 20.1753 97.3021 19.2459C97.1115 17.8383 97.4434 16.5396 98.1787 15.3413C99.5506 13.1064 101.351 11.3174 103.728 10.143C104.039 9.98977 104.369 9.857 104.705 9.777C105.598 9.56254 106.553 9.23062 107.326 9.98296C108.151 10.7847 108.15 11.8757 107.789 12.8357C106.723 15.6732 105.202 18.1498 101.792 19.0179V19.0196ZM101.716 16.1242C101.631 17.0587 101.986 17.3106 102.48 16.9736C103.946 15.9745 105.057 14.6553 105.688 12.9821C105.791 12.7098 105.848 12.3353 105.527 12.114C105.229 11.9081 104.875 12.0085 104.623 12.1736C103.071 13.1881 102.16 14.657 101.716 16.1225V16.1242Z" fill="#192965" fill-opacity="0.9"/>
<path d="M148.002 19.0604C148.946 19.9949 149.92 20.4459 151.152 20.1413C151.583 20.0357 151.998 19.874 152.427 19.7583C152.768 19.6664 153.14 19.5745 153.35 19.9796C153.574 20.4136 153.316 20.7404 152.984 20.9362C151.472 21.8213 149.867 22.3745 148.088 21.9421C147.013 21.68 145.964 21.3055 144.892 21.0213C144.082 20.8068 143.682 20.2689 143.515 19.4996C143.231 18.2025 143.479 16.9736 144.09 15.8298C145.392 13.394 147.295 11.5319 149.729 10.2162C150.49 9.80424 151.321 9.58637 152.191 9.55063C153.225 9.50977 153.898 10.0323 154.041 11.0536C154.165 11.9387 154.082 12.783 153.646 13.6221C152.904 15.0519 152.305 16.5379 150.931 17.554C150.063 18.1974 149.139 18.6911 148.002 19.0587V19.0604ZM151.911 12.8902C151.952 12.0357 151.447 11.7464 150.757 12.2025C149.311 13.1608 148.357 14.5191 147.903 16.194C147.826 16.4766 147.724 16.8613 148.085 17.0417C148.403 17.2017 148.706 17.0042 148.957 16.8085C150.041 15.9557 150.887 14.8987 151.571 13.7123C151.741 13.4162 151.835 13.0774 151.91 12.8919L151.911 12.8902Z" fill="#192965" fill-opacity="0.9"/>
<path d="M81.2425 19.0417C82.3098 20.1141 83.4008 20.4987 84.7268 20.063C85.0587 19.9541 85.3855 19.8298 85.7242 19.7464C86.0664 19.6613 86.4391 19.5813 86.6247 20.0119C86.7932 20.4068 86.5821 20.7115 86.2723 20.8987C84.737 21.8281 83.1081 22.3796 81.2919 21.9183C80.3081 21.6698 79.3464 21.3396 78.3694 21.0621C77.2153 20.7336 76.7983 20.2502 76.6825 19.0758C76.5668 17.9064 76.7915 16.7983 77.3532 15.777C78.6706 13.3872 80.5379 11.5302 82.9464 10.2281C83.6783 9.8315 84.4749 9.61192 85.3123 9.55746C86.514 9.48086 87.2511 10.0868 87.3583 11.2902C87.4315 12.1209 87.3379 12.9175 86.8698 13.6596C86.2655 14.6179 86.0017 15.7634 85.1813 16.6094C84.1038 17.7226 82.8817 18.5924 81.2425 19.0383V19.0417ZM85.1302 12.8528C85.1506 12.0017 84.7166 11.7617 83.9847 12.2247C82.4749 13.1779 81.5983 14.6162 81.1217 16.3064C81.0553 16.543 81.0196 16.8392 81.2664 17.0026C81.5796 17.2102 81.8774 17.0519 82.1328 16.8511C83.3123 15.92 84.2791 14.8085 84.9413 13.4536C85.0502 13.2323 85.0928 12.9787 85.1302 12.8562V12.8528Z" fill="#192965" fill-opacity="0.9"/>
<path d="M135.641 14.4834C135.282 14.3217 134.757 14.5549 134.614 14.0902C134.516 13.7719 134.79 13.44 135.052 13.3038C137.03 12.2809 137.76 10.3336 138.533 8.49193C139.178 6.9549 140.485 6.56001 141.814 6.08682C142.14 5.97107 142.497 6.03746 142.652 6.35405C142.909 6.8749 143.003 7.42639 142.696 7.9881C142.134 9.01448 141.591 10.0511 141.045 11.086C140.96 11.246 140.895 11.4179 140.783 11.6681C141.236 11.7055 141.605 11.7089 141.966 11.7719C142.778 11.9166 143.018 12.4051 142.616 13.137C142.104 14.0732 141.319 14.6349 140.214 14.5141C139.443 14.4289 139.028 14.7132 138.825 15.4315C138.654 16.0375 138.388 16.6213 138.26 17.2358C138.026 18.3762 138.674 19.0485 139.855 18.9838C140.471 18.9498 141.025 18.7013 141.591 18.5038C141.944 18.3813 142.266 18.2826 142.541 18.6213C142.824 18.9668 142.63 19.2647 142.436 19.566C141.484 21.0315 138.078 22.2502 136.446 21.7072C134.883 21.1864 133.922 19.1796 134.48 17.4843C134.814 16.4681 135.251 15.486 135.643 14.4868L135.641 14.4834Z" fill="#192965" fill-opacity="0.9"/>
<path d="M116.47 15.1319C115.723 16.4153 115.016 17.6477 114.289 18.8698C113.736 19.7974 113.127 20.6894 112.228 21.3294C111.021 22.1889 109.334 21.5132 109.023 20.0715C108.934 19.6613 109.239 19.4774 109.443 19.2868C110.888 17.9234 111.203 16.2111 111.1 14.3336C111.072 13.8417 111.003 13.5625 110.427 13.6102C110.061 13.6408 109.704 13.5047 109.6 13.1098C109.493 12.7013 109.714 12.3762 110.02 12.1174C110.395 11.8008 110.856 11.6715 111.319 11.554C111.9 11.4077 112.483 11.3072 113.037 11.0264C113.77 10.6519 114.153 10.8885 114.313 11.7157C114.528 12.8306 114.306 13.9183 114.063 14.9991C114.024 15.1711 113.818 15.36 114.041 15.4979C114.289 15.6511 114.436 15.4434 114.567 15.2494C115.118 14.4238 115.641 13.6851 115.455 12.5157C115.147 10.5804 116.264 9.16254 118.148 8.60084C118.543 8.4834 118.771 8.65701 118.962 8.90893C119.523 9.64595 119.896 10.4 119.295 11.3277C118.805 12.0868 118.659 12.8528 119.268 13.7021C119.625 14.2008 119.809 14.8817 119.127 15.3889C118.138 16.1225 117.401 16.0732 116.475 15.1319H116.47Z" fill="#192965" fill-opacity="0.9"/>
<path d="M68.72 21.8502C68.1208 21.7838 67.5132 21.76 66.9259 21.6425C65.4825 21.3515 64.8936 20.4902 65.0979 19.0366C65.4332 16.6298 66.7319 14.7268 68.4187 13.0945C69.8144 11.7447 71.4808 10.7438 73.2851 9.98977C74.2281 9.59488 74.9549 9.96594 75.5727 10.6519C76.0119 11.1404 75.9319 11.7123 75.7242 12.2638C75.5336 12.7676 75.0536 12.8681 74.6144 12.8153C73.2698 12.6553 72.371 13.3583 71.5966 14.291C70.5617 15.537 69.5881 16.8306 69.183 18.4374C68.9566 19.3345 69.1574 19.5319 70.0817 19.3957C71.0757 19.2476 71.9608 18.834 72.7779 18.2672C73.5608 17.7259 74.3404 17.1813 75.1217 16.6383C75.2766 16.531 75.4349 16.383 75.634 16.5072C75.8247 16.6247 75.7855 16.8357 75.7753 17.0213C75.7498 17.5098 75.554 17.9387 75.2885 18.3404C73.9813 20.3166 71.1047 21.8349 68.7217 21.8502H68.72Z" fill="#192965" fill-opacity="0.9"/>
<path d="M44.628 20.4289C45.5148 19.0877 46.5617 17.9625 47.6017 16.7506C45.2187 17.4434 42.8902 18.3234 40.3982 18.3472C40.3829 18.2706 40.3659 18.194 40.3506 18.1191C40.9821 17.9932 41.617 17.8859 42.2434 17.7362C45.7004 16.9123 48.6195 15.1166 51.2527 12.7966C51.7974 12.3166 51.748 12.0238 51.251 11.52C49.9557 10.2077 48.4459 9.09276 46.7795 8.28425C45.2595 7.54722 43.9642 6.55488 43.3736 4.88169C43.268 4.58382 43.0893 4.22467 43.3617 3.99488C43.6119 3.78382 43.8842 4.09191 44.1344 4.20254C46.3302 5.18637 48.6638 5.66297 51.0246 5.99488C52.5787 6.21276 53.5557 6.99403 54.068 8.47318C54.5123 9.75999 54.7795 9.85361 56.0119 9.26467C57.0587 8.76425 57.9148 9.18808 58.817 9.75659C58.4051 10.223 57.8723 10.6213 57.5557 11.2034C57.2544 11.7566 57.4144 12.0834 58.0238 12.0936C59.0229 12.1106 60.0153 12.063 60.6689 13.0332C61.2119 13.84 61.4502 14.7353 61.6204 15.6851C61.9982 17.8094 63.2578 19.4979 64.5021 21.1864C64.6723 21.4179 65.1012 21.5932 64.868 21.9574C64.6451 22.3081 64.2876 22.0664 63.9948 21.9949C61.3582 21.3447 59.6697 19.5404 58.4153 17.2936C57.9846 16.5208 57.4008 16.1753 56.6468 15.7702C53.2408 13.9438 50.6536 15.5438 48.148 17.5915C47.2408 18.3336 46.417 19.1779 45.5472 19.9642C45.3225 20.1668 45.1591 20.4885 44.628 20.4255V20.4289Z" fill="url(#paint1_linear_40_112)"/>
<path d="M30.046 28.647H28.143V29.9355H30.3762V30.7321H27.1523V25.9236H30.3694V26.7253H28.143V27.8708H30.046V28.647Z" fill="url(#paint2_linear_40_112)"/>
<path d="M33.3005 29.9336H35.4043V30.7302H32.3098V25.9217H33.3005V29.9336Z" fill="url(#paint3_linear_40_112)"/>
<path d="M40.2179 28.6468H38.3149V29.9353H40.5481V30.7319H37.3243V25.9234H40.5413V26.7251H38.3149V27.8706H40.2179V28.6468Z" fill="url(#paint4_linear_40_112)"/>
<path d="M44.2604 29.5387L45.3498 25.9217H46.4528L44.7779 30.7302H43.7447L42.0766 25.9217H43.1762L44.2587 29.5387H44.2604Z" fill="url(#paint5_linear_40_112)"/>
<path d="M50.7251 29.7396H48.9872L48.657 30.7302H47.6034L49.394 25.9217H50.3115L52.1106 30.7302H51.057L50.7234 29.7396H50.7251ZM49.2562 28.9379H50.4579L49.8536 27.1387L49.2562 28.9379Z" fill="url(#paint6_linear_40_112)"/>
<path d="M57.1371 26.7251H55.6647V30.7319H54.6741V26.7251H53.2205V25.9234H57.1371V26.7251Z" fill="url(#paint7_linear_40_112)"/>
<path d="M61.9472 28.6468H60.0442V29.9353H62.2774V30.7319H59.0536V25.9234H62.2706V26.7251H60.0442V27.8706H61.9472V28.6468Z" fill="url(#paint8_linear_40_112)"/>
<path d="M70.6706 26.7251H69.1983V30.7319H68.2076V26.7251H66.754V25.9234H70.6706V26.7251Z" fill="url(#paint9_linear_40_112)"/>
<path d="M76.5004 30.7302H75.5098V28.6689H73.5779V30.7302H72.5872V25.9217H73.5779V27.8706H75.5098V25.9217H76.5004V30.7302Z" fill="url(#paint10_linear_40_112)"/>
<path d="M81.6119 28.6468H79.709V29.9353H81.9422V30.7319H78.7183V25.9234H81.9353V26.7251H79.709V27.8706H81.6119V28.6468Z" fill="url(#paint11_linear_40_112)"/>
<path d="M87.9047 29.9336H90.0085V30.7302H86.9141V25.9217H87.9047V29.9336Z" fill="url(#paint12_linear_40_112)"/>
<path d="M94.8221 28.6468H92.9192V29.9353H95.1524V30.7319H91.9285V25.9234H95.1455V26.7251H92.9192V27.8706H94.8221V28.6468Z" fill="url(#paint13_linear_40_112)"/>
<path d="M99.8008 29.7396H98.063L97.7328 30.7302H96.6791L98.4698 25.9217H99.3872L101.186 30.7302H100.133L99.7991 29.7396H99.8008ZM98.3319 28.9379H99.5336L98.9294 27.1387L98.3319 28.9379Z" fill="url(#paint14_linear_40_112)"/>
<path d="M102.991 30.7302V25.9217H104.47C104.892 25.9217 105.272 26.017 105.603 26.2077C105.937 26.3983 106.197 26.6689 106.385 27.0196C106.572 27.3702 106.666 27.7702 106.666 28.2162V28.4374C106.666 28.8851 106.574 29.2817 106.39 29.6289C106.206 29.9762 105.947 30.2468 105.612 30.4374C105.277 30.6281 104.9 30.7251 104.478 30.7285H102.989L102.991 30.7302ZM103.981 26.7234V29.9336H104.46C104.848 29.9336 105.144 29.8077 105.348 29.554C105.552 29.3004 105.658 28.9379 105.661 28.4681V28.2145C105.661 27.7259 105.559 27.3549 105.357 27.103C105.154 26.8511 104.858 26.7251 104.468 26.7251H103.98L103.981 26.7234Z" fill="url(#paint15_linear_40_112)"/>
<path d="M111.631 28.6468H109.728V29.9353H111.961V30.7319H108.737V25.9234H111.954V26.7251H109.728V27.8706H111.631V28.6468Z" fill="url(#paint16_linear_40_112)"/>
<path d="M115.677 28.9702H114.887V30.7302H113.896V25.9217H115.683C116.252 25.9217 116.689 26.0477 116.997 26.3013C117.306 26.5549 117.46 26.9123 117.46 27.3753C117.46 27.7038 117.389 27.9762 117.248 28.1957C117.106 28.4153 116.89 28.5889 116.603 28.72L117.643 30.6842V30.7302H116.579L115.677 28.9702ZM114.887 28.1685H115.687C115.935 28.1685 116.128 28.1055 116.266 27.9779C116.403 27.8502 116.47 27.6766 116.47 27.4536C116.47 27.2306 116.405 27.0485 116.276 26.9191C116.146 26.7898 115.949 26.7251 115.683 26.7251H114.887V28.1685Z" fill="url(#paint17_linear_40_112)"/>
<path d="M126.347 29.343L126.994 25.9217H127.981L126.914 30.7302H125.917L125.134 27.5132L124.351 30.7302H123.353L122.286 25.9217H123.273L123.923 29.3362L124.717 25.9217H125.556L126.346 29.343H126.347Z" fill="url(#paint18_linear_40_112)"/>
<path d="M130.923 30.7302H129.932V25.9217H130.923V30.7302Z" fill="url(#paint19_linear_40_112)"/>
<path d="M136.718 26.7251H135.246V30.7319H134.255V26.7251H132.802V25.9234H136.718V26.7251Z" fill="url(#paint20_linear_40_112)"/>
<path d="M142.548 30.7302H141.557V28.6689H139.626V30.7302H138.635V25.9217H139.626V27.8706H141.557V25.9217H142.548V30.7302Z" fill="url(#paint21_linear_40_112)"/>
<path d="M145.82 30.7302H144.829V25.9217H145.82V30.7302Z" fill="url(#paint22_linear_40_112)"/>
<path d="M152.002 30.7302H151.011L149.083 27.5659V30.7302H148.092V25.9217H149.083L151.014 29.0928V25.9217H152.002V30.7302Z" fill="url(#paint23_linear_40_112)"/>
<path d="M157.331 -6.85663e-06C157.399 -6.85663e-06 157.467 -6.85663e-06 157.535 -6.85663e-06C157.542 -6.85663e-06 157.549 0.0033974 157.556 0.0033974C157.789 0.0136102 158.015 0.0544612 158.237 0.129355C158.965 0.38127 159.484 0.86127 159.796 1.56595C159.901 1.80595 159.962 2.05957 159.988 2.3217C159.993 2.37106 159.997 2.41872 160 2.46808V2.66723C160 2.66723 159.997 2.68425 159.997 2.69276C159.986 2.91063 159.951 3.1251 159.882 3.33446C159.644 4.06127 159.178 4.58723 158.483 4.91063C158.213 5.03659 157.927 5.10638 157.629 5.1285C157.597 5.13021 157.564 5.13361 157.532 5.13701H157.333C157.333 5.13701 157.319 5.13361 157.312 5.13361C157.256 5.1285 157.2 5.1251 157.144 5.11999C156.897 5.09276 156.659 5.02978 156.429 4.93276C156.014 4.75404 155.666 4.4868 155.392 4.12595C155.086 3.72425 154.914 3.27148 154.873 2.76765C154.871 2.73531 154.868 2.70467 154.865 2.67233C154.865 2.60255 154.865 2.53276 154.865 2.46297C154.865 2.45446 154.868 2.44595 154.868 2.43744C154.877 2.2417 154.909 2.05106 154.962 1.86212C155.193 1.05872 155.792 0.422121 156.579 0.142972C156.776 0.0731846 156.979 0.0289293 157.186 0.0102059C157.234 0.00509953 157.283 0.00169527 157.331 -0.00170898V-6.85663e-06ZM155.384 2.5685C155.384 3.69872 156.298 4.61446 157.43 4.61616C158.56 4.61616 159.477 3.70042 159.477 2.57021C159.477 1.43999 158.563 0.524248 157.431 0.522546C156.301 0.522546 155.384 1.43829 155.384 2.5685Z" fill="#192965" fill-opacity="0.9"/>
<path d="M156.999 2.83915V3.85191H156.308V1.16595C156.308 1.16595 156.32 1.16595 156.325 1.16595C156.689 1.16595 157.055 1.16595 157.42 1.16595C157.595 1.16595 157.768 1.18468 157.937 1.24255C158.048 1.28 158.148 1.33447 158.228 1.42127C158.313 1.51319 158.357 1.62553 158.376 1.74808C158.397 1.88425 158.395 2.02042 158.356 2.15489C158.3 2.34553 158.172 2.46978 157.995 2.54978C157.957 2.56681 157.918 2.58042 157.879 2.59574C157.893 2.60085 157.906 2.60425 157.92 2.60936C158.034 2.64851 158.121 2.7234 158.192 2.81702C158.255 2.89872 158.305 2.98723 158.351 3.07915C158.475 3.32936 158.599 3.57957 158.723 3.83149C158.727 3.8383 158.728 3.8451 158.734 3.85361H158.71C158.48 3.85361 158.248 3.85361 158.019 3.85361C158 3.85361 157.993 3.84681 157.985 3.83149C157.874 3.6051 157.763 3.37702 157.648 3.15064C157.615 3.08766 157.574 3.02808 157.532 2.97361C157.469 2.89191 157.38 2.85106 157.278 2.84255C157.188 2.83574 157.098 2.83744 157.008 2.83744C157.006 2.83744 157.004 2.83744 156.999 2.83915ZM156.999 2.35744C157.118 2.35744 157.237 2.35744 157.355 2.35744C157.396 2.35744 157.438 2.34893 157.479 2.33872C157.581 2.31149 157.654 2.25021 157.682 2.14468C157.704 2.05787 157.705 1.97106 157.682 1.88425C157.658 1.79064 157.602 1.72595 157.508 1.69872C157.467 1.68681 157.426 1.67659 157.385 1.67489C157.26 1.66978 157.135 1.67149 157.009 1.66978C157.006 1.66978 157.004 1.66978 157.001 1.66978V2.35744H156.999Z" fill="#192965" fill-opacity="0.9"/>
<path d="M21.8553 19.4655C22.3234 19.6647 23.1864 19.6834 23.1864 19.6834C23.0928 19.8638 22.5345 20.2689 21.5149 20.8987C20.4936 21.5302 19.8996 21.8451 19.7294 21.8451C18.8034 21.8451 18.1004 21.4791 17.617 20.7506C17.1353 20.0221 16.8953 19.1864 16.8953 18.2502C16.8953 17.5302 17.1217 16.2757 17.5762 14.4919C17.8025 13.5728 18.1617 12.2757 18.6536 10.5991C16.0051 16.8579 11.3362 22.7387 2.31829 21.2664C-1.48085 20.7047 0.762549 18.7455 1.02638 18.446C1.45872 17.9557 1.51659 17.7549 1.2017 17.0621C0.764251 16.1004 1.34297 15.886 1.34297 15.886C1.34297 15.886 2.44085 16.417 2.45106 16.3779C2.19914 16.2502 1.13872 15.886 1.01446 15.3651C0.871485 14.7643 1.5251 14.5855 1.5251 14.5855C1.5251 14.5855 1.82297 14.3932 1.80085 14.1719C1.77872 13.9506 1.55234 14.0238 1.03149 13.7294C-0.16511 13.057 0.849358 12.1583 1.03829 12.0289C1.5251 11.7004 2.68085 10.7711 3.24085 10.177C3.80255 9.58298 3.56255 9.24766 3.50978 9.14383C3.41787 8.96 3.43659 9.05872 3.26127 8.66723C3.10978 8.32851 5.74468 6.18893 5.39914 5.61361C5.05361 5.03829 3.75829 5.07063 3.87234 5.00425C6.8034 3.29532 10.4528 3.69702 11.0877 3.83149C10.514 3.92851 9.88085 4.33872 9.5268 4.77446L9.5234 4.79149C9.34297 5.03319 9.30383 5.48255 9.29702 5.59149C9.29531 5.6068 9.29531 5.61532 9.29531 5.61532C9.6 6.18893 6.95659 6.81191 6.81702 9.46893C6.81531 9.50808 6.81532 9.61361 6.76425 9.86893C6.76085 9.88766 6.61617 9.96595 6.44936 9.95574C6.21787 9.93872 6.02893 9.77191 6.0068 9.75149C6.02212 9.78042 6.14297 10.0119 6.32 10.1038C6.46127 10.1787 6.80851 10.1702 6.80851 10.1702C6.80851 10.1702 6.46638 10.8408 5.05702 12.0272C4.87659 12.1787 3.17787 12.8851 4.33361 13.7277C4.70127 13.9949 5.06212 13.9489 5.07063 14.1702C5.07744 14.3932 4.61787 14.7472 4.61787 14.7472C4.61787 14.7472 4.27404 14.5872 4.27234 15.4451C4.27234 15.8587 5.30893 16.2604 5.30893 16.2604L5.53191 15.8962C5.53191 15.8962 5.45191 16.0272 5.47574 16.2757C5.49957 16.5072 5.57106 16.7591 5.58127 16.7881C5.55574 16.7421 5.31914 16.3081 5.29361 16.2962C4.97702 16.1515 4.48851 15.8843 4.48851 15.8843C4.48851 15.8843 3.89446 16.1004 4.26212 17.0604C4.52766 17.7532 3.79063 17.5353 3.27659 18.2281C2.98212 18.6264 3.22212 19.5591 4.28936 19.6851C11.777 20.5549 15.5574 11.2885 19.2834 6.40681C21.6323 3.33106 22.2536 3.43319 22.5719 3.40766C23.006 3.37361 23.4213 3.49957 23.4213 4.2451C23.3532 4.70468 23.1591 5.97446 22.3728 8.54468C21.7106 10.7608 21.2953 12.2043 21.1251 12.8698C20.7081 14.5634 20.5004 16.0426 20.5004 17.3038C20.5004 17.8996 20.5906 18.3557 20.7694 18.6706C20.9481 18.9855 21.3123 19.2511 21.8604 19.4672L21.8553 19.4655Z" fill="url(#paint24_linear_40_112)"/>
</g>
<defs>
<linearGradient id="paint0_linear_40_112" x1="44.6434" y1="22.4545" x2="56.9804" y2="10.1191" gradientUnits="userSpaceOnUse">
<stop stop-color="#3C1955"/>
<stop offset="1" stop-color="#EC3292"/>
</linearGradient>
<linearGradient id="paint1_linear_40_112" x1="44.6434" y1="22.4545" x2="56.9804" y2="10.1191" gradientUnits="userSpaceOnUse">
<stop stop-color="#EC287F"/>
<stop offset="0.32" stop-color="#ED3776"/>
<stop offset="0.94" stop-color="#EF5E60"/>
<stop offset="1" stop-color="#F0635E"/>
</linearGradient>
<linearGradient id="paint2_linear_40_112" x1="26.0494" y1="28.327" x2="148.757" y2="28.327" gradientUnits="userSpaceOnUse">
<stop stop-color="#EC287F"/>
<stop offset="0.32" stop-color="#ED3776"/>
<stop offset="0.94" stop-color="#EF5E60"/>
<stop offset="1" stop-color="#F0635E"/>
</linearGradient>
<linearGradient id="paint3_linear_40_112" x1="26.0494" y1="28.3268" x2="148.757" y2="28.3268" gradientUnits="userSpaceOnUse">
<stop stop-color="#EC287F"/>
<stop offset="0.32" stop-color="#ED3776"/>
<stop offset="0.94" stop-color="#EF5E60"/>
<stop offset="1" stop-color="#F0635E"/>
</linearGradient>
<linearGradient id="paint4_linear_40_112" x1="26.0494" y1="28.3268" x2="148.757" y2="28.3268" gradientUnits="userSpaceOnUse">
<stop stop-color="#EC287F"/>
<stop offset="0.32" stop-color="#ED3776"/>
<stop offset="0.94" stop-color="#EF5E60"/>
<stop offset="1" stop-color="#F0635E"/>
</linearGradient>
<linearGradient id="paint5_linear_40_112" x1="26.0494" y1="28.3268" x2="148.757" y2="28.3268" gradientUnits="userSpaceOnUse">
<stop stop-color="#EC287F"/>
<stop offset="0.32" stop-color="#ED3776"/>
<stop offset="0.94" stop-color="#EF5E60"/>
<stop offset="1" stop-color="#F0635E"/>
</linearGradient>
<linearGradient id="paint6_linear_40_112" x1="26.0494" y1="28.3268" x2="148.757" y2="28.3268" gradientUnits="userSpaceOnUse">
<stop stop-color="#EC287F"/>
<stop offset="0.32" stop-color="#ED3776"/>
<stop offset="0.94" stop-color="#EF5E60"/>
<stop offset="1" stop-color="#F0635E"/>
</linearGradient>
<linearGradient id="paint7_linear_40_112" x1="26.0494" y1="28.3268" x2="148.757" y2="28.3268" gradientUnits="userSpaceOnUse">
<stop stop-color="#EC287F"/>
<stop offset="0.32" stop-color="#ED3776"/>
<stop offset="0.94" stop-color="#EF5E60"/>
<stop offset="1" stop-color="#F0635E"/>
</linearGradient>
<linearGradient id="paint8_linear_40_112" x1="26.0493" y1="28.3268" x2="148.757" y2="28.3268" gradientUnits="userSpaceOnUse">
<stop stop-color="#EC287F"/>
<stop offset="0.32" stop-color="#ED3776"/>
<stop offset="0.94" stop-color="#EF5E60"/>
<stop offset="1" stop-color="#F0635E"/>
</linearGradient>
<linearGradient id="paint9_linear_40_112" x1="26.0493" y1="28.3268" x2="148.757" y2="28.3268" gradientUnits="userSpaceOnUse">
<stop stop-color="#EC287F"/>
<stop offset="0.32" stop-color="#ED3776"/>
<stop offset="0.94" stop-color="#EF5E60"/>
<stop offset="1" stop-color="#F0635E"/>
</linearGradient>
<linearGradient id="paint10_linear_40_112" x1="26.0494" y1="28.3268" x2="148.757" y2="28.3268" gradientUnits="userSpaceOnUse">
<stop stop-color="#EC287F"/>
<stop offset="0.32" stop-color="#ED3776"/>
<stop offset="0.94" stop-color="#EF5E60"/>
<stop offset="1" stop-color="#F0635E"/>
</linearGradient>
<linearGradient id="paint11_linear_40_112" x1="26.0494" y1="28.3268" x2="148.757" y2="28.3268" gradientUnits="userSpaceOnUse">
<stop stop-color="#EC287F"/>
<stop offset="0.32" stop-color="#ED3776"/>
<stop offset="0.94" stop-color="#EF5E60"/>
<stop offset="1" stop-color="#F0635E"/>
</linearGradient>
<linearGradient id="paint12_linear_40_112" x1="26.0494" y1="28.3268" x2="148.757" y2="28.3268" gradientUnits="userSpaceOnUse">
<stop stop-color="#EC287F"/>
<stop offset="0.32" stop-color="#ED3776"/>
<stop offset="0.94" stop-color="#EF5E60"/>
<stop offset="1" stop-color="#F0635E"/>
</linearGradient>
<linearGradient id="paint13_linear_40_112" x1="26.0494" y1="28.3268" x2="148.757" y2="28.3268" gradientUnits="userSpaceOnUse">
<stop stop-color="#EC287F"/>
<stop offset="0.32" stop-color="#ED3776"/>
<stop offset="0.94" stop-color="#EF5E60"/>
<stop offset="1" stop-color="#F0635E"/>
</linearGradient>
<linearGradient id="paint14_linear_40_112" x1="26.0494" y1="28.3268" x2="148.757" y2="28.3268" gradientUnits="userSpaceOnUse">
<stop stop-color="#EC287F"/>
<stop offset="0.32" stop-color="#ED3776"/>
<stop offset="0.94" stop-color="#EF5E60"/>
<stop offset="1" stop-color="#F0635E"/>
</linearGradient>
<linearGradient id="paint15_linear_40_112" x1="26.0495" y1="28.3268" x2="148.757" y2="28.3268" gradientUnits="userSpaceOnUse">
<stop stop-color="#EC287F"/>
<stop offset="0.32" stop-color="#ED3776"/>
<stop offset="0.94" stop-color="#EF5E60"/>
<stop offset="1" stop-color="#F0635E"/>
</linearGradient>
<linearGradient id="paint16_linear_40_112" x1="26.0494" y1="28.3268" x2="148.757" y2="28.3268" gradientUnits="userSpaceOnUse">
<stop stop-color="#EC287F"/>
<stop offset="0.32" stop-color="#ED3776"/>
<stop offset="0.94" stop-color="#EF5E60"/>
<stop offset="1" stop-color="#F0635E"/>
</linearGradient>
<linearGradient id="paint17_linear_40_112" x1="26.0493" y1="28.3268" x2="148.757" y2="28.3268" gradientUnits="userSpaceOnUse">
<stop stop-color="#EC287F"/>
<stop offset="0.32" stop-color="#ED3776"/>
<stop offset="0.94" stop-color="#EF5E60"/>
<stop offset="1" stop-color="#F0635E"/>
</linearGradient>
<linearGradient id="paint18_linear_40_112" x1="26.0493" y1="28.3268" x2="148.757" y2="28.3268" gradientUnits="userSpaceOnUse">
<stop stop-color="#EC287F"/>
<stop offset="0.32" stop-color="#ED3776"/>
<stop offset="0.94" stop-color="#EF5E60"/>
<stop offset="1" stop-color="#F0635E"/>
</linearGradient>
<linearGradient id="paint19_linear_40_112" x1="26.0492" y1="28.3268" x2="148.757" y2="28.3268" gradientUnits="userSpaceOnUse">
<stop stop-color="#EC287F"/>
<stop offset="0.32" stop-color="#ED3776"/>
<stop offset="0.94" stop-color="#EF5E60"/>
<stop offset="1" stop-color="#F0635E"/>
</linearGradient>
<linearGradient id="paint20_linear_40_112" x1="26.0496" y1="28.3268" x2="148.757" y2="28.3268" gradientUnits="userSpaceOnUse">
<stop stop-color="#EC287F"/>
<stop offset="0.32" stop-color="#ED3776"/>
<stop offset="0.94" stop-color="#EF5E60"/>
<stop offset="1" stop-color="#F0635E"/>
</linearGradient>
<linearGradient id="paint21_linear_40_112" x1="26.0494" y1="28.3268" x2="148.757" y2="28.3268" gradientUnits="userSpaceOnUse">
<stop stop-color="#EC287F"/>
<stop offset="0.32" stop-color="#ED3776"/>
<stop offset="0.94" stop-color="#EF5E60"/>
<stop offset="1" stop-color="#F0635E"/>
</linearGradient>
<linearGradient id="paint22_linear_40_112" x1="26.0492" y1="28.3268" x2="148.757" y2="28.3268" gradientUnits="userSpaceOnUse">
<stop stop-color="#EC287F"/>
<stop offset="0.32" stop-color="#ED3776"/>
<stop offset="0.94" stop-color="#EF5E60"/>
<stop offset="1" stop-color="#F0635E"/>
</linearGradient>
<linearGradient id="paint23_linear_40_112" x1="26.0492" y1="28.3268" x2="148.757" y2="28.3268" gradientUnits="userSpaceOnUse">
<stop stop-color="#EC287F"/>
<stop offset="0.32" stop-color="#ED3776"/>
<stop offset="0.94" stop-color="#EF5E60"/>
<stop offset="1" stop-color="#F0635E"/>
</linearGradient>
<linearGradient id="paint24_linear_40_112" x1="0.127656" y1="12.623" x2="23.4128" y2="12.623" gradientUnits="userSpaceOnUse">
<stop stop-color="#EC287F"/>
<stop offset="0.32" stop-color="#ED3776"/>
<stop offset="0.94" stop-color="#EF5E60"/>
<stop offset="1" stop-color="#F0635E"/>
</linearGradient>
<clipPath id="clip0_40_112">
<rect width="160" height="30.7302" fill="white"/>
</clipPath>
</defs>
</svg>
