<svg width="14" height="16" viewBox="0 0 14 16" fill="none" xmlns="http://www.w3.org/2000/svg">
<path fill-rule="evenodd" clip-rule="evenodd" d="M7 1.77778C5.71134 1.77778 4.66667 2.82245 4.66667 4.11112C4.66667 5.39978 5.71134 6.44445 7 6.44445C8.28866 6.44445 9.33333 5.39978 9.33333 4.11112C9.33333 2.82245 8.28866 1.77778 7 1.77778ZM3.11111 4.11112C3.11111 1.96334 4.85223 0.222229 7 0.222229C9.14777 0.222229 10.8889 1.96334 10.8889 4.11112C10.8889 6.25889 9.14777 8.00001 7 8.00001C4.85223 8.00001 3.11111 6.25889 3.11111 4.11112ZM1.13903 10.6946C1.86834 9.96528 2.85749 9.55556 3.88889 9.55556H10.1111C11.1425 9.55556 12.1317 9.96529 12.861 10.6946C13.5903 11.4239 14 12.4131 14 13.4445V15C14 15.4296 13.6518 15.7778 13.2222 15.7778C12.7927 15.7778 12.4444 15.4296 12.4444 15V13.4445C12.4444 12.8256 12.1986 12.2321 11.761 11.7945C11.3234 11.357 10.7299 11.1111 10.1111 11.1111H3.88889C3.27005 11.1111 2.67656 11.357 2.23897 11.7945C1.80139 12.2321 1.55556 12.8256 1.55556 13.4445V15C1.55556 15.4296 1.20733 15.7778 0.777778 15.7778C0.348223 15.7778 0 15.4296 0 15V13.4445C0 12.4131 0.409721 11.4239 1.13903 10.6946Z" fill="#384860"/>
</svg>
